<svg id="Camada_1" data-name="Camada 1" xmlns="http://www.w3.org/2000/svg" viewBox="0 0 600 165"><defs><style>.cls-1{fill:red;}</style></defs><title>Prancheta 1</title><path class="cls-1" d="M24,16V65.93H12.71V16Z"/><path class="cls-1" d="M46.51,19.33V29.67h8.12V38H46.51V51.12c0,4.38,1.09,6.39,4.45,6.39a14.47,14.47,0,0,0,3.35-.34l.09,8.57a24,24,0,0,1-7.3,1,11.77,11.77,0,0,1-8.5-3.15c-2.09-2.15-3.12-5.6-3.12-10.75V38H30.67V29.67h4.81V21.88Z"/><path class="cls-1" d="M81.76,65.93l-.67-3.6h-.24c-2.36,2.88-6.06,4.41-10.35,4.41-7.39,0-11.72-5.3-11.72-11.09,0-9.44,8.45-13.92,21.28-13.91v-.46c0-1.93-1-4.68-6.64-4.67a20.88,20.88,0,0,0-10,2.71L61.35,32.1a29.33,29.33,0,0,1,14.09-3.25c12.07,0,15.89,7.14,15.89,15.65V57.15a51.74,51.74,0,0,0,.58,8.78ZM80.39,48.78c-5.93,0-10.51,1.4-10.51,5.72,0,2.92,1.91,4.34,4.47,4.34a6.15,6.15,0,0,0,5.83-4.17,7.12,7.12,0,0,0,.21-1.92Z"/><path class="cls-1" d="M100.26,41.85c0-4.76-.14-8.78-.3-12.18h9.8l.52,5.08h.15c2.69-3.83,6.81-5.9,12.07-5.9,7.94,0,15.07,6.9,15.07,18.47,0,13.22-8.42,19.42-16.49,19.42-4.33,0-7.8-1.74-9.4-4.13h-.15v18H100.26Zm11.27,8.56a10.83,10.83,0,0,0,.23,2.35,6.84,6.84,0,0,0,6.59,5.35c4.87,0,7.78-4.11,7.78-10.26,0-5.76-2.58-10.17-7.6-10.17a7.06,7.06,0,0,0-6.74,5.7,7.93,7.93,0,0,0-.26,2Z"/><path class="cls-1" d="M153.44,51.42c.33,4.68,4.95,6.9,10.21,6.9a30.32,30.32,0,0,0,10-1.53l1.52,7.63A35.32,35.32,0,0,1,162,66.71c-12.29,0-19.34-7.16-19.34-18.46,0-9.21,5.75-19.4,18.28-19.4,11.75,0,16.19,9.14,16.19,18.11a21.4,21.4,0,0,1-.41,4.46Zm13.23-7.72c0-2.71-1.19-7.35-6.32-7.35-4.77,0-6.69,4.35-7,7.35Z"/><path class="cls-1" d="M196.41,19.33V29.67h8.12V38h-8.12V51.12c0,4.38,1.09,6.39,4.45,6.39a14.34,14.34,0,0,0,3.35-.34l.09,8.57a23.88,23.88,0,0,1-7.3,1,11.8,11.8,0,0,1-8.5-3.15c-2.09-2.15-3.11-5.6-3.11-10.75V38h-4.82V29.67h4.82V21.88Z"/><path class="cls-1" d="M222.64,19.6c0,3.14-2.31,5.63-6.06,5.63a5.53,5.53,0,0,1-5.87-5.63c0-3.22,2.35-5.64,6-5.64A5.56,5.56,0,0,1,222.64,19.6ZM211,65.93V29.67h11.29V65.93Z"/><path class="cls-1" d="M231.33,41.25c0-4.51-.14-8.33-.3-11.58h9.78l.52,5h.24a13.13,13.13,0,0,1,11.2-5.84c7.41,0,13,4.94,13,15.62V65.93H254.46V45.83c0-4.67-1.66-7.87-5.73-7.87A6.11,6.11,0,0,0,243,42.22a8.07,8.07,0,0,0-.39,2.79V65.93H231.33Z"/><path class="cls-1" d="M309.33,29.67c-.17,2.34-.31,5.4-.31,10.81V60.66c0,7-1.41,12.66-5.52,16.3-4,3.44-9.36,4.45-14.69,4.45-4.79,0-9.8-1-13-2.78L278,70.09a22.41,22.41,0,0,0,10.5,2.72c5.33,0,9.41-2.85,9.41-9.55V60.93h-.15A11.67,11.67,0,0,1,288,65.61c-8.94,0-15.33-7.27-15.33-17.65,0-11.7,7.53-19.11,16.43-19.11,5,0,8.09,2.17,9.93,5.15h.15l.38-4.33ZM297.74,44.45a9,9,0,0,0-.22-2.08c-.78-3-2.93-5-6.07-5-4.1,0-7.37,3.74-7.37,10.32,0,5.4,2.67,9.62,7.35,9.62a6.17,6.17,0,0,0,6-4.55,12.21,12.21,0,0,0,.32-3Z"/><path class="cls-1" d="M338.64,65.93l-.66-3.6h-.24c-2.37,2.88-6.07,4.41-10.36,4.41-7.38,0-11.72-5.3-11.72-11.09,0-9.44,8.45-13.92,21.28-13.91v-.46c0-1.93-1-4.68-6.64-4.67a20.81,20.81,0,0,0-10,2.71l-2.08-7.22a29.4,29.4,0,0,1,14.09-3.25c12.07,0,15.89,7.14,15.89,15.65V57.15a52.8,52.8,0,0,0,.58,8.78Zm-1.37-17.15c-5.93,0-10.51,1.4-10.51,5.72,0,2.92,1.91,4.34,4.47,4.34a6.15,6.15,0,0,0,5.83-4.17,6.74,6.74,0,0,0,.21-1.92Z"/><path class="cls-1" d="M418.18,40.46c0,16.39-9.89,26.28-24.49,26.28-14.8,0-23.52-11.2-23.52-25.44,0-14.92,9.61-26.12,24.31-26.12C409.8,15.18,418.18,26.65,418.18,40.46Zm-36.07.63c0,9.78,4.61,16.68,12.14,16.68s12-7.21,12-16.92c0-9-4.26-16.69-12-16.69S382.11,31.38,382.11,41.09Z"/><path class="cls-1" d="M425.55,41.25c0-4.51-.14-8.33-.29-11.58H435l.53,5h.23A13.14,13.14,0,0,1,447,28.85c7.4,0,13,4.94,13,15.62V65.93H448.69V45.83C448.69,41.16,447,38,443,38a6.12,6.12,0,0,0-5.72,4.26,8.32,8.32,0,0,0-.39,2.79V65.93H425.55Z"/><path class="cls-1" d="M468.93,13.33h11.29v52.6H468.93Z"/><path class="cls-1" d="M500.88,19.6c0,3.14-2.31,5.63-6.06,5.63A5.53,5.53,0,0,1,489,19.6c0-3.22,2.35-5.64,6-5.64A5.56,5.56,0,0,1,500.88,19.6ZM489.27,65.93V29.67h11.29V65.93Z"/><path class="cls-1" d="M509.57,41.25c0-4.51-.14-8.33-.3-11.58h9.78l.52,5h.24A13.13,13.13,0,0,1,531,28.85c7.41,0,13,4.94,13,15.62V65.93H532.7V45.83C532.7,41.16,531,38,527,38a6.11,6.11,0,0,0-5.72,4.26,8.07,8.07,0,0,0-.39,2.79V65.93H509.57Z"/><path class="cls-1" d="M561.63,51.42c.34,4.68,5,6.9,10.22,6.9a30.36,30.36,0,0,0,10-1.53l1.52,7.63a35.37,35.37,0,0,1-13.14,2.29c-12.28,0-19.33-7.16-19.33-18.46,0-9.21,5.74-19.4,18.27-19.4,11.75,0,16.19,9.14,16.19,18.11a21.56,21.56,0,0,1-.4,4.46Zm13.24-7.72c0-2.71-1.2-7.35-6.33-7.35-4.76,0-6.69,4.35-7,7.35Z"/><path d="M186.7,88.89A3.32,3.32,0,0,1,189.17,90a8.35,8.35,0,0,1,1.6,2.36,14.14,14.14,0,0,1,1,6.7,45.83,45.83,0,0,1-1.1,6.71,88,88,0,0,1-3.25,10.44,95.67,95.67,0,0,0-3.31,10.52h1.14a1,1,0,0,0,.42-.14,1.64,1.64,0,0,1,.36-.25.84.84,0,0,0,.36-.46v-.14l.21-.15a1,1,0,0,1,.36-.07.23.23,0,0,1,.14.07,1.58,1.58,0,0,1,.43.5,2.84,2.84,0,0,1,.28,1.71,2.12,2.12,0,0,1-.78,1.18,4.4,4.4,0,0,1-2.35.68h-1.29a3.32,3.32,0,0,0-.18.64c0,.19-.06.41-.1.64s-.21.88-.32,1.5a9.74,9.74,0,0,0-.18,1.85,4,4,0,0,0,.35,1.68,1.74,1.74,0,0,0,1.22,1,1.85,1.85,0,0,0,1.39-.25,1.62,1.62,0,0,1,1.25-.25,1.14,1.14,0,0,1,.78.86,1.68,1.68,0,0,1,0,.71,7.4,7.4,0,0,1-2.71,4.78c-1.43,1.09-3.28,1.29-5.56.57a4.92,4.92,0,0,1-2.75-1.89,7.31,7.31,0,0,1-1.14-3.07,13.47,13.47,0,0,1,0-3.7c.17-1.31.39-2.61.68-3.89.09-.38.19-.74.28-1.07s.19-.69.29-1.07a27.47,27.47,0,0,1-4.17-1.57,41.63,41.63,0,0,1-3.75-2,46.87,46.87,0,0,1-8.73,7.42,17.77,17.77,0,0,1-9.1,3.07q-6.19.14-10-1.75a12.84,12.84,0,0,1-5.53-4.85,11.49,11.49,0,0,1-1.61-6.45,15.08,15.08,0,0,1,1.79-6.57,15.51,15.51,0,0,1,4.6-5.24,13.53,13.53,0,0,1,7-2.53,19.2,19.2,0,0,1,6.24.43,28.7,28.7,0,0,1,5.67,2,35,35,0,0,1,5.21,3q2.49,1.74,4.78,3.6,3.21-4.5,5.92-9.2t4.78-8.63q2.34-4.56,4.35-9a1.59,1.59,0,0,1,1-1.18A3.31,3.31,0,0,1,186.7,88.89Zm-36.3,42.65a12.22,12.22,0,0,0,7.28-2.46,39.75,39.75,0,0,0,7.13-6.52l-4.21-3a38.49,38.49,0,0,0-3.56-2.32,15.34,15.34,0,0,0-5.6-1.93,12,12,0,0,0-5.14.39,8.06,8.06,0,0,0-3.85,2.64,8.84,8.84,0,0,0-1.82,4.82q-.36,3.34,1.14,5.1a8.36,8.36,0,0,0,3.43,2.46A14.73,14.73,0,0,0,150.4,131.54Zm31-18.33q.78-2.49,1.64-5.09a50.16,50.16,0,0,0,1.42-5.32q-2.07,3.7-5.06,8.35a108.12,108.12,0,0,1-6.63,9.13l2.6,2c.83.64,1.65,1.22,2.46,1.75.57-1.81,1.17-3.62,1.78-5.43S180.86,115,181.43,113.21Z"/><path d="M214.38,139.82a14.53,14.53,0,0,1-4.28-.82,10.07,10.07,0,0,1-3-1.68,8,8,0,0,1-1.86-2.21,11.47,11.47,0,0,1-1-2.5,15.23,15.23,0,0,1-.14-6.63,20.44,20.44,0,0,1,2.35-7,14.82,14.82,0,0,1,1.75-2.49,11.08,11.08,0,0,1,2.46-2.14,12.08,12.08,0,0,1,3.31-1.47,14.18,14.18,0,0,1,4.25-.46,10.62,10.62,0,0,1,2.24.39,7.1,7.1,0,0,1,2,1,5.71,5.71,0,0,1,1.53,1.53,4.12,4.12,0,0,1,.68,2.1,5.69,5.69,0,0,1-.54,3.5,3.84,3.84,0,0,1-1.82,1.64,4.45,4.45,0,0,1-2.1.32,2.4,2.4,0,0,1-1.39-.46c-.24-.19-.26-.53-.07-1,.09-.19.19-.41.28-.65a6.68,6.68,0,0,0,.86-2.35,3.45,3.45,0,0,0-.07-1.28,1.34,1.34,0,0,0-.72-.72,3.37,3.37,0,0,0-2.67.54,8.11,8.11,0,0,0-2.1,2.21,15.5,15.5,0,0,0-1.57,3,30.16,30.16,0,0,0-1,2.93,29.12,29.12,0,0,0-.64,3,9.87,9.87,0,0,0,0,3.25,5.27,5.27,0,0,0,1.25,2.71,4.92,4.92,0,0,0,3.21,1.43,6.92,6.92,0,0,0,3.42-.4,13.1,13.1,0,0,0,2.64-1.39,20,20,0,0,0,1.86-1.42c.47-.43.8-.6,1-.5a.75.75,0,0,1,.36.92c-.05.2-.12.43-.21.72a8.67,8.67,0,0,1-2.75,4,12.5,12.5,0,0,1-3.39,1.89A10.8,10.8,0,0,1,214.38,139.82Z"/><path d="M230.92,116.57a5.93,5.93,0,0,0,.14-2.14c-.09-.38-.19-.74-.28-1.07a.56.56,0,0,1-.07-.47,1,1,0,0,1,.21-.32.52.52,0,0,1,.36-.14,12.9,12.9,0,0,1,2.21,0,4.52,4.52,0,0,1,2.32.85,4.41,4.41,0,0,1,1.53,2.35,9,9,0,0,1-.14,4.46q-.64,2.93-1.14,5.1c-.34,1.45-.61,2.75-.82,3.89s-.39,2.16-.5,3.07a13.8,13.8,0,0,0-.11,2.63,3.21,3.21,0,0,0,.25,1.47,3.52,3.52,0,0,0,.53.75l.54.5a1,1,0,0,1,.32.64c0,.33-.14.67-.57,1A4.1,4.1,0,0,1,234,140a5.79,5.79,0,0,1-2.28,0,4.91,4.91,0,0,1-2.39-1.21,4.82,4.82,0,0,1-1.5-2.75,16.2,16.2,0,0,1-.25-3.92,30.08,30.08,0,0,1,.61-4.53c.33-1.57.68-3.07,1-4.49s.7-2.72,1-3.89A22.8,22.8,0,0,0,230.92,116.57Zm4.71-5.64a2.83,2.83,0,0,1-2.43-1.35,4.59,4.59,0,0,1-.71-3.21,5.54,5.54,0,0,1,1.46-3.21,3.77,3.77,0,0,1,2.82-1.36,2.81,2.81,0,0,1,2.46,1.36,4.71,4.71,0,0,1,.68,3.21,5.59,5.59,0,0,1-1.46,3.21A3.79,3.79,0,0,1,235.63,110.93Z"/><path d="M268.72,98.45a17.49,17.49,0,0,1-.21,6q-.64,3.57-1.64,7.63c-.34,1.24-.71,2.64-1.11,4.21s-.8,3.21-1.18,4.92l-.64,2.78q-.85,3.85-1.35,6.32a16.47,16.47,0,0,0-.36,4.52,3.8,3.8,0,0,0,.21,1.47,2.19,2.19,0,0,0,.58.75,1.35,1.35,0,0,0,.32.35,2.27,2.27,0,0,1,.32.36,1.15,1.15,0,0,1,.14.43c.09.52-.3,1-1.18,1.49a5.08,5.08,0,0,1-5.67-.85,5,5,0,0,1-1.64-3.28,11.17,11.17,0,0,1-3.31,3.21,8.62,8.62,0,0,1-5.32,1.14,8.36,8.36,0,0,1-3.28-.72,7.22,7.22,0,0,1-2.21-1.53,6.79,6.79,0,0,1-1.35-2,10.45,10.45,0,0,1-.72-2.35,16.86,16.86,0,0,1,.15-6.14,25.05,25.05,0,0,1,2.35-7.17,17.13,17.13,0,0,1,3.53-4.74,11,11,0,0,1,4.17-2.46,8.6,8.6,0,0,1,4.28-.25,6.64,6.64,0,0,1,3.57,1.71,7.11,7.11,0,0,1,1.57,2.43c.57-2.24,1.05-4.14,1.46-5.71s.75-2.93,1-4.1.5-2.17.64-3,.26-1.71.36-2.57V100a5.17,5.17,0,0,0-.11-1.07,2,2,0,0,0-.32-.79c-.14-.18-.28-.36-.43-.53a1,1,0,0,1-.21-.68v-.35a1,1,0,0,1,.29-.72,1.63,1.63,0,0,1,.53-.57,2.89,2.89,0,0,1,1.11-.43,2.2,2.2,0,0,1,1-.14h.5a6.73,6.73,0,0,1,1.72.5,3.65,3.65,0,0,1,2.35,3l.14.28ZM246.11,128a13.23,13.23,0,0,0-.32,4.42,6.41,6.41,0,0,0,.75,2.35,2.34,2.34,0,0,0,1.5,1.14,4.24,4.24,0,0,0,3.49-1.17,12.84,12.84,0,0,0,2.5-3.21,21.13,21.13,0,0,0,1.57-3.57c.38-1.16.61-1.94.71-2.32l.57-2.35a7.46,7.46,0,0,0,.14-1.64,7.58,7.58,0,0,0-.25-2A4.68,4.68,0,0,0,256,118a2.26,2.26,0,0,0-1.56-.89,3.78,3.78,0,0,0-2.22.46,7.87,7.87,0,0,0-2.39,2,14.79,14.79,0,0,0-2.13,3.53A22.79,22.79,0,0,0,246.11,128Z"/><path d="M286.76,112.43a2.63,2.63,0,0,0,.47,0,4.33,4.33,0,0,1,.53,0,8.81,8.81,0,0,1,1.75.18,4.58,4.58,0,0,1,1.68.71,4,4,0,0,1,1.28,1.53,6,6,0,0,1,.5,2.64,13.07,13.07,0,0,1-.29,2.71c-.38,1.81-.73,3.4-1.07,4.78s-.6,2.63-.82,3.75-.38,2.11-.5,3a20.54,20.54,0,0,0-.17,2.53,6.19,6.19,0,0,0,.21,1.89,2.29,2.29,0,0,0,.5.89,5.1,5.1,0,0,0,.57.5,1.06,1.06,0,0,1,.36.72c0,.42-.32.86-1,1.32a4.3,4.3,0,0,1-2.53.67,5.49,5.49,0,0,1-3.14-1.1,5.12,5.12,0,0,1-1.92-3.67,11.54,11.54,0,0,1-3.14,3.17,8.5,8.5,0,0,1-4.92,1.32,9,9,0,0,1-4.39-.93,6.89,6.89,0,0,1-2.56-2.32,8.59,8.59,0,0,1-1.22-3,15.79,15.79,0,0,1-.32-3c0-.53,0-1,0-1.39s.06-.78.1-1.11a5.12,5.12,0,0,1,.22-1,25.56,25.56,0,0,1,2.07-6.56,18.41,18.41,0,0,1,3.06-4.6,11.86,11.86,0,0,1,3.68-2.71,9.36,9.36,0,0,1,3.88-.89,8.38,8.38,0,0,1,2.71.39,6.7,6.7,0,0,1,2,1,5.75,5.75,0,0,1,1.28,1.35,9.93,9.93,0,0,1,.75,1.36c0-.34.08-.62.1-.86a5.63,5.63,0,0,0,0-.71,2.12,2.12,0,0,0-.21-1.07,1.34,1.34,0,0,1-.22-.72.83.83,0,0,1,.29-.57ZM284.7,123.2a8.7,8.7,0,0,0,.07-1.28,9.11,9.11,0,0,0-.15-1.57,6.15,6.15,0,0,0-.49-1.61,3.46,3.46,0,0,0-.93-1.21,2.3,2.3,0,0,0-1.5-.46,4.6,4.6,0,0,0-2.39.92,10.49,10.49,0,0,0-2.67,2.75,17.56,17.56,0,0,0-2.21,4.49,18.75,18.75,0,0,0-.93,6.17,7.22,7.22,0,0,0,.35,2.53,3.79,3.79,0,0,0,.79,1.32,2.25,2.25,0,0,0,1.14.64,5.09,5.09,0,0,0,3.39-1.24,12.13,12.13,0,0,0,2.49-2.93,16.27,16.27,0,0,0,1.61-3.35c.38-1.12.64-2,.78-2.53s.21-.93.33-1.36S284.6,123.63,284.7,123.2Z"/><path d="M323.85,98.45a17.49,17.49,0,0,1-.21,6Q323,108,322,112.07c-.34,1.24-.71,2.64-1.11,4.21s-.8,3.21-1.18,4.92l-.64,2.78q-.85,3.85-1.35,6.32a16.47,16.47,0,0,0-.36,4.52,3.8,3.8,0,0,0,.21,1.47,2.29,2.29,0,0,0,.57.75,1.59,1.59,0,0,0,.33.35,2.27,2.27,0,0,1,.32.36,1.15,1.15,0,0,1,.14.43c.09.52-.3,1-1.18,1.49a5.08,5.08,0,0,1-5.67-.85,5,5,0,0,1-1.64-3.28,11.17,11.17,0,0,1-3.31,3.21,8.62,8.62,0,0,1-5.32,1.14,8.36,8.36,0,0,1-3.28-.72,7.22,7.22,0,0,1-2.21-1.53,7,7,0,0,1-1.36-2,10.42,10.42,0,0,1-.71-2.35,17.06,17.06,0,0,1,.14-6.14,25.36,25.36,0,0,1,2.36-7.17,17.13,17.13,0,0,1,3.53-4.74,11,11,0,0,1,4.17-2.46,8.6,8.6,0,0,1,4.28-.25,6.68,6.68,0,0,1,3.57,1.71,7.11,7.11,0,0,1,1.57,2.43c.57-2.24,1.05-4.14,1.46-5.71s.75-2.93,1-4.1.5-2.17.64-3,.26-1.71.36-2.57V100a5.17,5.17,0,0,0-.11-1.07,2.14,2.14,0,0,0-.32-.79c-.14-.18-.28-.36-.43-.53a1,1,0,0,1-.21-.68v-.35a.94.94,0,0,1,.29-.72,1.63,1.63,0,0,1,.53-.57,2.89,2.89,0,0,1,1.11-.43,2.2,2.2,0,0,1,1-.14h.5a6.73,6.73,0,0,1,1.72.5,3.65,3.65,0,0,1,2.35,3l.14.28ZM301.24,128a13.23,13.23,0,0,0-.32,4.42,6.41,6.41,0,0,0,.75,2.35,2.34,2.34,0,0,0,1.5,1.14,4.24,4.24,0,0,0,3.49-1.17,12.84,12.84,0,0,0,2.5-3.21,21.13,21.13,0,0,0,1.57-3.57c.38-1.16.61-1.94.71-2.32l.57-2.35a7.46,7.46,0,0,0,.14-1.64,7.58,7.58,0,0,0-.25-2,4.68,4.68,0,0,0-.82-1.71,2.27,2.27,0,0,0-1.57-.89,3.76,3.76,0,0,0-2.21.46,7.75,7.75,0,0,0-2.39,2,15.13,15.13,0,0,0-2.14,3.53A23.37,23.37,0,0,0,301.24,128Z"/><path d="M332.62,139.82a14.66,14.66,0,0,1-4.28-.82,10.2,10.2,0,0,1-3-1.68,8.13,8.13,0,0,1-1.85-2.21,11.51,11.51,0,0,1-1-2.5,15.38,15.38,0,0,1-.14-6.63,19.58,19.58,0,0,1,2.28-7,15.43,15.43,0,0,1,1.75-2.49,10.66,10.66,0,0,1,2.5-2.14,12.8,12.8,0,0,1,3.31-1.47,13.84,13.84,0,0,1,4.21-.46,7.93,7.93,0,0,1,3.46.93,6.2,6.2,0,0,1,2.5,2.42,7.06,7.06,0,0,1,.78,3.85,13,13,0,0,1-1.6,5.21,7,7,0,0,1-3.21,3.28,8.62,8.62,0,0,1-3.71.71,5.87,5.87,0,0,1-3.21-1,4.06,4.06,0,0,1-1.64-1.71,15.58,15.58,0,0,0-.5,2.82,8.63,8.63,0,0,0,.21,2.93,5.08,5.08,0,0,0,1.36,2.38,4.83,4.83,0,0,0,3,1.22,6.74,6.74,0,0,0,3.36-.4,13.38,13.38,0,0,0,2.64-1.39,19.74,19.74,0,0,0,1.85-1.42c.47-.43.81-.6,1-.5a.8.8,0,0,1,.43.92c-.05.2-.12.43-.22.72a8.58,8.58,0,0,1-2.74,4,12.65,12.65,0,0,1-3.39,1.89A10.85,10.85,0,0,1,332.62,139.82Zm4.78-23.4a3.41,3.41,0,0,0-2.6.47,7.52,7.52,0,0,0-2.11,2.07,14.28,14.28,0,0,0-1.57,2.92,27.76,27.76,0,0,0-1,2.89h.14a7.69,7.69,0,0,0,3.81-.75,6.78,6.78,0,0,0,3.18-3.25,7.8,7.8,0,0,0,.82-2.24,3.28,3.28,0,0,0,0-1.32A1.36,1.36,0,0,0,337.4,116.42Z"/><path d="M378.62,112.43a2.63,2.63,0,0,0,.47,0,4.33,4.33,0,0,1,.53,0,8.89,8.89,0,0,1,1.75.18,4.47,4.47,0,0,1,1.67.71,3.91,3.91,0,0,1,1.29,1.53,6,6,0,0,1,.5,2.64,13.07,13.07,0,0,1-.29,2.71c-.38,1.81-.73,3.4-1.07,4.78s-.6,2.63-.82,3.75-.38,2.11-.5,3a18.75,18.75,0,0,0-.17,2.53,6.19,6.19,0,0,0,.21,1.89,2.29,2.29,0,0,0,.5.89,5.1,5.1,0,0,0,.57.5,1.06,1.06,0,0,1,.36.72c0,.42-.33.86-1,1.32a4.3,4.3,0,0,1-2.53.67,5.47,5.47,0,0,1-3.14-1.1,5.08,5.08,0,0,1-1.92-3.67,11.54,11.54,0,0,1-3.14,3.17,8.52,8.52,0,0,1-4.92,1.32,9,9,0,0,1-4.39-.93,7,7,0,0,1-2.57-2.32,8.76,8.76,0,0,1-1.21-3,15.79,15.79,0,0,1-.32-3c0-.53,0-1,0-1.39s.06-.78.1-1.11a5.12,5.12,0,0,1,.22-1,25.56,25.56,0,0,1,2.07-6.56A18.41,18.41,0,0,1,364,116a11.86,11.86,0,0,1,3.68-2.71,9.36,9.36,0,0,1,3.88-.89,8.38,8.38,0,0,1,2.71.39,6.52,6.52,0,0,1,2,1,5.61,5.61,0,0,1,1.29,1.35,9.93,9.93,0,0,1,.75,1.36c0-.34.08-.62.1-.86a5.63,5.63,0,0,0,0-.71,2.12,2.12,0,0,0-.21-1.07,1.34,1.34,0,0,1-.22-.72.83.83,0,0,1,.29-.57Zm-2.07,10.77a7.18,7.18,0,0,0,.08-1.28,9.11,9.11,0,0,0-.15-1.57,5.81,5.81,0,0,0-.5-1.61,3.33,3.33,0,0,0-.92-1.21,2.3,2.3,0,0,0-1.5-.46,4.6,4.6,0,0,0-2.39.92,10.49,10.49,0,0,0-2.67,2.75,17.9,17.9,0,0,0-2.22,4.49,19,19,0,0,0-.92,6.17,7.22,7.22,0,0,0,.35,2.53,3.79,3.79,0,0,0,.79,1.32,2.25,2.25,0,0,0,1.14.64,5.09,5.09,0,0,0,3.39-1.24,12.36,12.36,0,0,0,2.49-2.93,16.27,16.27,0,0,0,1.61-3.35c.38-1.12.64-2,.78-2.53s.2-.93.32-1.36S376.46,123.63,376.55,123.2Z"/><path d="M417.56,147.45a4.06,4.06,0,0,1-2.64-1.82,9,9,0,0,1-1.17-3,12.92,12.92,0,0,1-.22-3.35c.07-1.14.16-2.07.25-2.79a12,12,0,0,1-3,2.64,6.19,6.19,0,0,1-3.6.93h-.14a8.24,8.24,0,0,1-2.82-.57,7.14,7.14,0,0,1-2-1.18,4.88,4.88,0,0,1-1.21-1.53,8.51,8.51,0,0,1-.64-1.64,12.4,12.4,0,0,1-.18-1.71c0-.57,0-1.1,0-1.57a43.21,43.21,0,0,1,.68-4.42c.31-1.52.64-3,1-4.35s.7-2.62,1-3.71a19.58,19.58,0,0,0,.64-2.57,6.76,6.76,0,0,0,.08-2.14c-.1-.38-.2-.74-.29-1.07a.63.63,0,0,1,.14-.71,1,1,0,0,1,.36-.22,15.92,15.92,0,0,1,2.25,0,4.31,4.31,0,0,1,2.31.86,4.45,4.45,0,0,1,1.5,2.35,9,9,0,0,1-.14,4.46c-.52,2.52-1,4.63-1.36,6.34s-.69,3.24-.92,4.57a8,8,0,0,0-.07,2.82,4,4,0,0,0,.57,1.46,1.29,1.29,0,0,0,1,.64,2.92,2.92,0,0,0,2.14-.78,9.5,9.5,0,0,0,1.86-2.25,19.88,19.88,0,0,0,1.53-3.1c.45-1.14.85-2.24,1.18-3.28l.43-1.64c.14-.58.31-1.15.5-1.72a6.59,6.59,0,0,0,.21-.85,4.33,4.33,0,0,1,.21-.79v-.14c.29-1.09.55-2,.79-2.85s.4-1.48.5-2a7,7,0,0,0,.07-2.14c-.1-.38-.19-.74-.29-1.07a.65.65,0,0,1,.15-.71.84.84,0,0,1,.35-.22,15.92,15.92,0,0,1,2.25,0,4.37,4.37,0,0,1,2.32.86,4.5,4.5,0,0,1,1.49,2.35,8.89,8.89,0,0,1-.14,4.46c-.24,1-.44,1.93-.6,2.81s-.35,1.7-.54,2.46a17.54,17.54,0,0,1-.36,1.72c-.14.57-.28,1.19-.42,1.85-.19.86-.38,1.76-.57,2.71s-.41,1.9-.65,2.85a21.53,21.53,0,0,0-.49,3.39,3.38,3.38,0,0,0,.42,2.11,1.85,1.85,0,0,0,1.14.78,2,2,0,0,0,1.61-.29,1.16,1.16,0,0,1,1.1-.28,1,1,0,0,1,.72.85,1.77,1.77,0,0,1,0,.65,7.15,7.15,0,0,1-1.93,4.1,6.83,6.83,0,0,1-2.78,1.53A7.94,7.94,0,0,1,417.56,147.45Z"/><path d="M435,137.89a1.25,1.25,0,0,1-.57,1,4.22,4.22,0,0,1-1.65.78,5.39,5.39,0,0,1-2.24,0,5,5,0,0,1-3.92-4,13.65,13.65,0,0,1-.25-4,34.42,34.42,0,0,1,.6-4.53c.31-1.56.66-3.06,1-4.49s.73-2.72,1.07-3.89a25.07,25.07,0,0,0,.64-2.67,6.53,6.53,0,0,0,.07-2.07c-.1-.38-.19-.76-.29-1.14a.65.65,0,0,1,.15-.71.45.45,0,0,1,.35-.15,17.09,17.09,0,0,1,1.79,0,5.36,5.36,0,0,1,1.92.43,4.17,4.17,0,0,1,1.64,1.25,4.33,4.33,0,0,1,.86,2.42,13.17,13.17,0,0,1,3-3.14A5.56,5.56,0,0,1,443,112h.08a.27.27,0,0,1,.14,0,.55.55,0,0,0,.21,0,7.48,7.48,0,0,1,1.11.32,4.54,4.54,0,0,1,1.39.9,6.09,6.09,0,0,1,1.28,1.74,8.68,8.68,0,0,1,.79,2.82,16.8,16.8,0,0,1,3.17-4.1,5.69,5.69,0,0,1,4-1.61,5.41,5.41,0,0,1,3.89,1.22,5.6,5.6,0,0,1,1.6,2.64,10.16,10.16,0,0,1,.14,3.85q-.28,2.28-1.1,6.06t-1.75,8.27q-1.29,5.77,1.28,6.21a1.86,1.86,0,0,0,.93,0,3.41,3.41,0,0,0,.64-.25l.54-.25a1,1,0,0,1,1.32.82,1.77,1.77,0,0,1,0,.65,7.18,7.18,0,0,1-1.93,4.1,6.83,6.83,0,0,1-2.78,1.53,7.94,7.94,0,0,1-3.64-.14,4.34,4.34,0,0,1-1.89-1,5.5,5.5,0,0,1-1.21-1.61,8.22,8.22,0,0,1-.68-2,16.68,16.68,0,0,1-.28-2.18,21.06,21.06,0,0,1,.5-5.56q.34-2.28,1-5.14c.4-1.9.94-4.08,1.6-6.56a13.73,13.73,0,0,0,.54-2.92,6.24,6.24,0,0,0-.11-1.64c-.14-.43-.35-.67-.64-.71a1.4,1.4,0,0,0-1.28.42,7.3,7.3,0,0,0-1.29,1.61,20.23,20.23,0,0,0-1.25,2.39c-.4.9-.77,1.85-1.1,2.85a16.93,16.93,0,0,0-.79,2.07c-.23.66-.48,1.42-.74,2.28s-.52,1.76-.75,2.71a1.29,1.29,0,0,0-.07.43.72.72,0,0,1-.08.35.31.31,0,0,1,0,.18.26.26,0,0,0,0,.18v.22a.73.73,0,0,0-.07.35,3.74,3.74,0,0,0,.07,1.32,2.62,2.62,0,0,0,.36.75l.39.54a1.11,1.11,0,0,1,.18.67c0,.33-.24.65-.71.93a3.59,3.59,0,0,1-1.79.46,6.26,6.26,0,0,1-2.24-.35,4.43,4.43,0,0,1-2.11-1.61,3.66,3.66,0,0,1-.85-1.85,1.78,1.78,0,0,1-.15-.68v-.68a.89.89,0,0,1,0-.43,3,3,0,0,0,0-.42,29.17,29.17,0,0,1,.54-4.6c.31-1.6.65-3.15,1-4.67a12.62,12.62,0,0,1,.36-1.22,8.75,8.75,0,0,0,.39-1.74,5.55,5.55,0,0,0,0-1.64.9.9,0,0,0-.86-.82c-.33,0-.84.35-1.53,1.21a18.61,18.61,0,0,0-2.14,3.53,32.81,32.81,0,0,0-2,5.35,31,31,0,0,0-1.1,6.74l.07.14a3.16,3.16,0,0,0,.25,1.46,2.65,2.65,0,0,0,.5.71l.5.5A1.31,1.31,0,0,1,435,137.89Z"/><path d="M485.89,139.82a14.59,14.59,0,0,1-4.28-.82,10.07,10.07,0,0,1-3-1.68,8,8,0,0,1-1.86-2.21,11.47,11.47,0,0,1-1-2.5,15.23,15.23,0,0,1-.14-6.63,20.44,20.44,0,0,1,2.35-7,14.82,14.82,0,0,1,1.75-2.49,11.08,11.08,0,0,1,2.46-2.14,12.08,12.08,0,0,1,3.31-1.47,14.18,14.18,0,0,1,4.25-.46,10.62,10.62,0,0,1,2.24.39,7.1,7.1,0,0,1,2,1,5.71,5.71,0,0,1,1.53,1.53,4.12,4.12,0,0,1,.68,2.1,5.69,5.69,0,0,1-.54,3.5,3.84,3.84,0,0,1-1.82,1.64,4.45,4.45,0,0,1-2.1.32,2.4,2.4,0,0,1-1.39-.46c-.24-.19-.26-.53-.07-1,.09-.19.19-.41.28-.65a6.68,6.68,0,0,0,.86-2.35,3.45,3.45,0,0,0-.07-1.28,1.34,1.34,0,0,0-.72-.72A3.37,3.37,0,0,0,488,117a8.11,8.11,0,0,0-2.1,2.21,16.06,16.06,0,0,0-1.57,3,30.16,30.16,0,0,0-1,2.93,29.12,29.12,0,0,0-.64,3,9.87,9.87,0,0,0,0,3.25,5.27,5.27,0,0,0,1.25,2.71,5,5,0,0,0,3.21,1.43,6.92,6.92,0,0,0,3.42-.4,13.1,13.1,0,0,0,2.64-1.39,20,20,0,0,0,1.86-1.42c.47-.43.8-.6,1-.5a.75.75,0,0,1,.36.92c-.05.2-.12.43-.21.72a8.6,8.6,0,0,1-2.75,4,12.5,12.5,0,0,1-3.39,1.89A10.8,10.8,0,0,1,485.89,139.82Z"/><path d="M500.58,138.82a5.47,5.47,0,0,1-1.64-3.75,22.49,22.49,0,0,1,.21-5.31A46.49,46.49,0,0,1,500.4,124c.55-1.93,1-3.6,1.39-5q1-3.85,1.71-6.67c.48-1.87.88-3.54,1.21-5s.59-2.71.75-3.78.3-2.08.4-3a7.24,7.24,0,0,0,0-1.32,1.77,1.77,0,0,0-.43-1.11l-.43-.53a1,1,0,0,1-.21-.68v-.35A1.59,1.59,0,0,1,505.93,95a3.75,3.75,0,0,1,2-.32,8.5,8.5,0,0,1,1.57.29,4,4,0,0,1,1.5.78l.22.14a4.73,4.73,0,0,1,1.21,2.57,14,14,0,0,1,.07,3.75,42.85,42.85,0,0,1-.75,4.63c-.36,1.69-.77,3.44-1.25,5.24l-2.28,9.13c-.1.53-.19,1-.29,1.47s-.19.89-.28,1.31q-.93,3.85-1.39,6.32a20.47,20.47,0,0,0-.39,4.52,4.41,4.41,0,0,0,.28,1.47,2.65,2.65,0,0,0,.5.75,3.82,3.82,0,0,0,.39.35,1.59,1.59,0,0,1,.32.36,1,1,0,0,1,.15.43c.09.52-.31,1-1.22,1.49a4.86,4.86,0,0,1-3.13.43A5.41,5.41,0,0,1,500.58,138.82Z"/><path d="M513.7,116.57a5.93,5.93,0,0,0,.14-2.14c-.09-.38-.19-.74-.28-1.07a.56.56,0,0,1-.07-.47.89.89,0,0,1,.21-.32.49.49,0,0,1,.36-.14,12.91,12.91,0,0,1,2.21,0,4.52,4.52,0,0,1,2.32.85,4.47,4.47,0,0,1,1.53,2.35,9.13,9.13,0,0,1-.14,4.46q-.65,2.93-1.15,5.1c-.33,1.45-.6,2.75-.82,3.89s-.38,2.16-.49,3.07a13.8,13.8,0,0,0-.11,2.63,2.72,2.72,0,0,0,.78,2.22l.54.5a1.05,1.05,0,0,1,.32.64c.05.33-.14.67-.57,1a4.1,4.1,0,0,1-1.68.79,5.79,5.79,0,0,1-2.28,0,4.91,4.91,0,0,1-2.39-1.21,4.82,4.82,0,0,1-1.5-2.75,15.71,15.71,0,0,1-.25-3.92,30.08,30.08,0,0,1,.61-4.53c.33-1.57.68-3.07,1-4.49s.7-2.72,1-3.89A25.07,25.07,0,0,0,513.7,116.57Zm4.71-5.64a2.83,2.83,0,0,1-2.43-1.35,4.59,4.59,0,0,1-.71-3.21,5.54,5.54,0,0,1,1.46-3.21,3.77,3.77,0,0,1,2.82-1.36,2.82,2.82,0,0,1,2.46,1.36,4.71,4.71,0,0,1,.68,3.21,5.61,5.61,0,0,1-1.47,3.21A3.75,3.75,0,0,1,518.41,110.93Z"/><path d="M532.38,139.82a14.52,14.52,0,0,1-4.27-.82,10.07,10.07,0,0,1-3-1.68,8,8,0,0,1-1.86-2.21,11.47,11.47,0,0,1-1-2.5,15.37,15.37,0,0,1-.15-6.63,20.66,20.66,0,0,1,2.36-7,14.82,14.82,0,0,1,1.75-2.49,10.65,10.65,0,0,1,2.46-2.14,12.08,12.08,0,0,1,3.31-1.47,14.18,14.18,0,0,1,4.25-.46,10.62,10.62,0,0,1,2.24.39,7.1,7.1,0,0,1,2,1,5.86,5.86,0,0,1,1.53,1.53,4.12,4.12,0,0,1,.68,2.1,5.69,5.69,0,0,1-.54,3.5,3.84,3.84,0,0,1-1.82,1.64,4.45,4.45,0,0,1-2.1.32,2.4,2.4,0,0,1-1.39-.46c-.24-.19-.26-.53-.07-1,.09-.19.19-.41.28-.65a6.68,6.68,0,0,0,.86-2.35,3.45,3.45,0,0,0-.07-1.28,1.37,1.37,0,0,0-.72-.72,3.37,3.37,0,0,0-2.67.54,8.14,8.14,0,0,0-2.11,2.21,16,16,0,0,0-1.56,3,27.68,27.68,0,0,0-1,2.93,29.12,29.12,0,0,0-.64,3,9.87,9.87,0,0,0,0,3.25,5.27,5.27,0,0,0,1.25,2.71,4.92,4.92,0,0,0,3.21,1.43,6.92,6.92,0,0,0,3.42-.4,13.1,13.1,0,0,0,2.64-1.39,18.5,18.5,0,0,0,1.85-1.42c.48-.43.81-.6,1-.5a.77.77,0,0,1,.36.92c0,.2-.12.43-.21.72a8.67,8.67,0,0,1-2.75,4,12.5,12.5,0,0,1-3.39,1.89A10.82,10.82,0,0,1,532.38,139.82Z"/><path d="M581.38,140.67a6,6,0,0,1,1.29,1.86,5.67,5.67,0,0,1,.32,2.14,5.76,5.76,0,0,1-1,2.78,5.18,5.18,0,0,1-1.74,1.64,12.82,12.82,0,0,1-2.11,1,13,13,0,0,1-2.57.57,21.53,21.53,0,0,1-7.2-.43A16.43,16.43,0,0,1,563,147.8a11.28,11.28,0,0,1-1.43-1.06c-.42-.39-.83-.77-1.21-1.15a17.33,17.33,0,0,1-3.06-4.35,34.49,34.49,0,0,1-2-4.7,33.45,33.45,0,0,1-1.1-4.21,29.07,29.07,0,0,1-.43-2.93c-.38,1.1-.71,2-1,2.86s-.47,1.33-.57,1.57a5.1,5.1,0,0,0,.07,1,3.59,3.59,0,0,0,.22,1.47,2.05,2.05,0,0,0,.57.75,1.35,1.35,0,0,0,.32.35,1.87,1.87,0,0,1,.32.36,1.15,1.15,0,0,1,.14.43c.1.52-.3,1-1.18,1.49a5.08,5.08,0,0,1-5.67-.85,5.39,5.39,0,0,1-1.71-3.75,22.52,22.52,0,0,1,.22-5.31,46.43,46.43,0,0,1,1.24-5.74c.55-1.93,1-3.6,1.4-5l2.31-9.06q1-4.07,1.47-6.84A10.12,10.12,0,0,0,552,99c-.26-.85-.91-1.09-2-.71a.28.28,0,0,1-.21.07c-.24,0-.38-.07-.43-.21s-.07-.34.07-.57l.14-.29a8.43,8.43,0,0,1,2.11-2,4.83,4.83,0,0,1,3.81-.47,3.55,3.55,0,0,1,2.75,1.86,8.52,8.52,0,0,1,.75,3.82,25.08,25.08,0,0,1-.65,5.27c-.42,2-.9,4.06-1.42,6.24-.29,1.14-.62,2.45-1,3.93s-.76,3-1.14,4.7a25.32,25.32,0,0,1,4.21-5.81,7.34,7.34,0,0,1,5.06-2.46,6.13,6.13,0,0,1,3.17.71,4.81,4.81,0,0,1,1.75,1.72,5.53,5.53,0,0,1,.71,2.14,15.14,15.14,0,0,1,.15,1.92c-.05.52-.1,1-.15,1.43a7.63,7.63,0,0,1-.21,1.21,8.2,8.2,0,0,1-1.43,3.32A8.82,8.82,0,0,1,565.8,127a10.33,10.33,0,0,1-2.57,1.25,12.67,12.67,0,0,1-2.46.57,5,5,0,0,0-.61,0,4.24,4.24,0,0,1-.53,0c0,.23.15.71.32,1.42s.4,1.54.71,2.46a28.32,28.32,0,0,0,1.22,3,21.37,21.37,0,0,0,1.78,3.1,14.82,14.82,0,0,0,2.42,2.71,9.73,9.73,0,0,0,3.18,1.85c.33.1.65.18,1,.25l1,.25a13.37,13.37,0,0,0,3.78,0,10.16,10.16,0,0,0,2.64-.75,6.9,6.9,0,0,0,1.71-1.07,5.37,5.37,0,0,0,.93-1,.65.65,0,0,1,.29-.35A1,1,0,0,1,581.38,140.67ZM562,117.85a2.12,2.12,0,0,0-1.74.39,7.61,7.61,0,0,0-1.75,1.75,20.77,20.77,0,0,0-1.68,2.68c-.55,1-1.06,2-1.53,3.1a12.52,12.52,0,0,0,4.1-1.14,8.85,8.85,0,0,0,2.25-1.64,4.66,4.66,0,0,0,1.07-2.14,5.52,5.52,0,0,0,0-1.61,4.68,4.68,0,0,0-.25-1A.85.85,0,0,0,562,117.85Z"/><path d="M577.44,121.29l-1.91-27.06V82.92h7.76V94.23l-1.81,27.06ZM575.81,134v-7.14H583V134Z"/></svg>