<svg id="Camada_1" data-name="Camada 1" xmlns="http://www.w3.org/2000/svg" viewBox="0 0 348 348"><defs><style>.cls-1{fill:#d10000;}.cls-2{fill:#fff;}</style></defs><title>logo</title><circle class="cls-1" cx="172.98" cy="174.23" r="159.39"/><path class="cls-2" d="M194.87,90.49a60.7,60.7,0,0,0-54,82,.3.3,0,0,1-.11.35,16,16,0,0,0-2.12,1.76L94.2,219a22.92,22.92,0,0,0,0,32.32h0a22.93,22.93,0,0,0,32.33,0L171,206.88c.28-.28.54-.58.79-.88A60.7,60.7,0,1,0,194.87,90.49Zm9.35,89.63a29.75,29.75,0,0,1-35.48-35.48,29.33,29.33,0,0,1,22.52-22.52,29.75,29.75,0,0,1,35.48,35.48A29.36,29.36,0,0,1,204.22,180.12Z"/></svg>